<?xml version="1.0" standalone="no"?>
<!DOCTYPE svg PUBLIC "-//W3C//DTD SVG 20010904//EN"
 "http://www.w3.org/TR/2001/REC-SVG-20010904/DTD/svg10.dtd">
<svg version="1.0" xmlns="http://www.w3.org/2000/svg"
 width="5000.000000pt" height="5000.000000pt" viewBox="0 0 5000.000000 5000.000000"
 preserveAspectRatio="xMidYMid meet">

<g transform="translate(0.000000,5000.000000) scale(0.100000,-0.100000)"
fill="#000000" stroke="none">
<path d="M27750 44401 c0 -4 -27 -11 -61 -15 -92 -9 -269 -72 -366 -130 -260
-155 -434 -473 -450 -823 -7 -140 6 -242 44 -348 60 -169 123 -243 380 -446
1358 -1076 2278 -1875 3083 -2680 574 -574 1157 -1232 1507 -1700 587 -785
1041 -1545 1449 -2426 181 -391 412 -1052 523 -1499 17 -66 37 -144 46 -174
15 -54 195 -1465 235 -1840 84 -810 91 -1365 25 -1970 -8 -74 -17 -166 -19
-205 -3 -65 -36 -214 -152 -685 -82 -332 -198 -698 -314 -985 -78 -193 -105
-278 -165 -515 -121 -477 -231 -774 -430 -1169 -126 -250 -224 -415 -435 -736
-98 -148 -236 -373 -305 -500 -294 -532 -424 -745 -629 -1032 -222 -312 -547
-675 -946 -1058 -98 -94 -204 -211 -322 -355 -387 -475 -838 -939 -1299 -1336
-69 -60 -164 -144 -211 -187 -47 -42 -89 -77 -92 -77 -4 0 -89 -60 -189 -133
-100 -73 -238 -173 -306 -222 -177 -126 -289 -215 -511 -405 -369 -316 -625
-518 -965 -761 -524 -375 -879 -603 -1712 -1095 -230 -136 -600 -356 -823
-489 -1329 -795 -2496 -1430 -4030 -2194 -1291 -643 -2456 -1184 -3935 -1826
-572 -249 -777 -334 -772 -322 3 7 44 98 92 202 103 225 237 535 568 1320 382
905 409 975 655 1670 215 607 296 829 404 1110 95 247 106 284 114 390 12 156
-43 361 -142 527 -58 97 -236 283 -328 343 -140 91 -304 135 -503 135 -184 0
-315 -34 -470 -121 -142 -80 -321 -277 -408 -448 -51 -101 -242 -601 -580
-1516 -334 -905 -491 -1304 -777 -1975 -230 -538 -411 -914 -719 -1490 -221
-413 -310 -556 -469 -750 -288 -351 -456 -655 -486 -878 -3 -29 -10 -52 -15
-52 -5 0 -9 -67 -9 -150 0 -93 4 -150 10 -150 6 0 10 -9 10 -21 0 -46 44 -190
85 -276 126 -268 347 -467 619 -558 119 -40 247 -63 509 -90 133 -14 469 -52
747 -85 278 -33 633 -73 790 -90 740 -79 1382 -191 2240 -394 316 -74 790
-209 1539 -437 472 -144 711 -211 936 -263 194 -45 484 -101 605 -117 52 -7
99 -16 105 -21 12 -10 315 -11 315 0 0 4 51 13 113 20 241 26 345 49 443 97
192 94 347 288 430 535 27 80 29 95 28 250 0 151 -3 173 -27 254 -54 176 -146
322 -261 418 -73 61 -447 250 -576 291 -47 15 -165 41 -263 57 -400 67 -688
143 -1501 396 -735 230 -1207 353 -1954 510 -46 9 -79 21 -75 25 4 4 157 73
338 152 1305 571 2455 1109 3655 1709 1256 628 2115 1092 3350 1811 652 379
1993 1174 2209 1309 718 450 1543 1059 2241 1654 85 72 206 166 269 208 225
152 489 356 886 687 527 439 954 864 1423 1417 90 106 299 332 465 504 344
354 464 485 634 689 251 302 473 599 668 894 179 271 272 429 447 765 121 232
171 317 270 455 482 676 887 1539 1096 2340 18 66 47 179 66 250 19 72 75 237
125 368 253 662 404 1254 511 2002 48 340 90 794 90 988 0 51 4 87 10 87 6 0
10 96 10 269 0 169 -4 272 -10 276 -5 3 -10 43 -10 88 0 266 -66 871 -199
1817 -39 272 -82 587 -96 700 -98 759 -313 1450 -782 2510 -611 1382 -1479
2668 -2708 4010 -170 185 -1003 1030 -1016 1030 -3 0 -44 38 -90 85 -45 47
-86 85 -90 85 -4 0 -35 29 -70 65 -34 36 -66 65 -70 65 -4 0 -31 25 -60 55
-28 30 -56 55 -60 55 -5 0 -29 23 -55 50 -26 28 -51 50 -55 50 -5 0 -27 20
-50 45 -23 25 -45 45 -50 45 -5 0 -25 18 -45 40 -20 22 -40 40 -45 40 -5 0
-25 18 -45 40 -20 22 -40 40 -45 40 -5 0 -23 16 -40 35 -17 19 -35 35 -40 35
-5 0 -23 16 -40 35 -17 19 -35 35 -41 35 -5 0 -21 14 -35 30 -13 17 -29 30
-34 30 -5 0 -23 16 -40 35 -17 19 -35 35 -41 35 -5 0 -21 14 -35 30 -13 17
-29 30 -35 30 -6 0 -19 11 -30 25 -11 14 -24 25 -29 25 -6 0 -22 14 -36 30
-13 17 -29 30 -35 30 -6 0 -19 11 -30 25 -11 14 -26 25 -34 25 -8 0 -14 4 -14
9 0 9 -224 201 -236 201 -3 0 -15 11 -26 25 -11 14 -25 25 -31 25 -7 0 -18 9
-25 20 -7 11 -17 20 -23 20 -6 0 -20 11 -31 25 -11 14 -23 25 -28 25 -4 0 -23
14 -41 31 -39 37 -873 704 -997 799 -176 133 -333 210 -474 231 -40 6 -81 15
-90 20 -23 11 -168 12 -168 0z"/>
</g>
</svg>
